<svg xmlns="http://www.w3.org/2000/svg" width="44" height="36.593" viewBox="0 0 44 36.593">
  <defs>
    <style>
      .cls-1 {
        fill-rule: evenodd;
      }
    </style>
  </defs>
  <path id="_9" data-name="9" class="cls-1" d="M98.264,814.4c-0.839-.386-1.365.345-1.905,0.822-3.879,3.432-7.739,6.885-11.634,10.3a2.425,2.425,0,0,1-1.35.534c-1.507.106-3.023,0.176-4.532,0.137a2.72,2.72,0,0,0-2.881,1.65q0.135,4.657.27,9.312a2.727,2.727,0,0,0,2.974,1.478c1.5-.126,3.022-0.147,4.533-0.13a2.436,2.436,0,0,1,1.379.451c4.151,3.233,8.263,6.518,12.42,9.745a2.34,2.34,0,0,0,1.656.565c0.755-.175.66-1.021,0.649-1.685,0-.115-0.006-0.23-0.01-0.345q-0.448-15.462-.9-30.925C98.913,815.6,99.048,814.756,98.264,814.4Zm-1.29,30.338c-0.354-.262-0.6-0.435-0.843-0.624-3.213-2.534-6.429-5.062-9.627-7.613a3.454,3.454,0,0,0-2.45-.8c-1.651.084-3.3,0.107-5.024,0.158-0.067-2.3-.132-4.545-0.2-6.889,1.672-.049,3.317-0.13,4.964-0.134a3.635,3.635,0,0,0,2.545-1.021c3.043-2.737,6.11-5.447,9.171-8.165,0.2-.181.422-0.342,0.721-0.584C96.479,827.646,96.724,836.1,96.974,844.735Zm14.785,4.782a13.973,13.973,0,0,0,1.884-1.486c4.663-4.413,6.339-10.011,6.318-16.281a26.35,26.35,0,0,0-2.211-9.59,21.891,21.891,0,0,0-6.809-8.607,1.371,1.371,0,0,0-2.047.2,1.427,1.427,0,0,0,.437,2.024c0.467,0.377.946,0.745,1.379,1.161a20.407,20.407,0,0,1,6.384,13.724c0.456,6.622-1.262,12.414-6.827,16.561a1.364,1.364,0,0,0-.446,1.887A1.313,1.313,0,0,0,111.759,849.517Zm-6.738-8.9a1.345,1.345,0,0,0-.448,1.881,1.368,1.368,0,0,0,1.943.414,7.033,7.033,0,0,0,.965-0.711,12.685,12.685,0,0,0,4.38-10.4c-0.009-.315,0-0.632-0.032-0.946-0.042-.428-0.1-0.855-0.172-1.278a14.093,14.093,0,0,0-5.538-9.091,1.361,1.361,0,0,0-2.1.227,1.4,1.4,0,0,0,.5,2,11.251,11.251,0,0,1,4.554,8.25C109.43,834.874,108.339,838.234,105.021,840.616Z" transform="translate(-75.969 -813.188)"/>
</svg>
