<svg xmlns="http://www.w3.org/2000/svg" width="33.969" height="39" viewBox="0 0 33.969 39">
  <defs>
    <style>
      .cls-1 {
        fill-rule: evenodd;
      }
    </style>
  </defs>
  <path id="_4" data-name="4" class="cls-1" d="M96.512,423.935c3.031,0,5.512.019,7.808,0.061l0.266,0a13.07,13.07,0,0,0,8.143-2.8c3.64-2.75,5.923-5.805,6.981-9.339a6.64,6.64,0,0,0,.259-1.846q0.02-10.215.012-20.428V385H86v38.962q2.5,0,4.994-.014Q93.751,423.939,96.512,423.935ZM88.889,387.9H117.1l0.038,0.749c0.013,0.195.024,0.393,0.024,0.59q0,9.963,0,19.927a8.674,8.674,0,0,1-.112,1.654c-0.409,2.115-2.01,3.347-4.391,3.379h-0.126a20.881,20.881,0,0,1-2.329-.172l-0.412-.046,0.036,0.283a18.282,18.282,0,0,1,.193,2.2,4.68,4.68,0,0,1-1.16,3.464,4.787,4.787,0,0,1-3.509,1.189l-6.68,0H88.889V387.9Zm23.314,9.467c0.906-.823.9-0.828,0.22-1.888a45.622,45.622,0,0,0-11.726,9.945c-1.717-.991-3.314-1.927-4.93-2.829a0.853,0.853,0,0,0-.74-0.028,15.963,15.963,0,0,0-1.338,1.188c2.62,2.771,5.192,5.488,7.786,8.229,0.584-1,1.165-2.018,1.762-3.025A49.215,49.215,0,0,1,112.2,397.364Z" transform="translate(-86 -385)"/>
</svg>
