<svg xmlns="http://www.w3.org/2000/svg" width="20.875" height="52" viewBox="0 0 20.875 52">
  <defs>
    <style>
      .cls-1 {
        fill-rule: evenodd;
      }
    </style>
  </defs>
  <path id="_3" data-name="3" class="cls-1" d="M105.3,333.352a2.008,2.008,0,0,0-1.661-.265,1.924,1.924,0,0,0-1.132.888,3.745,3.745,0,0,0-.448,1.189,4.428,4.428,0,0,0,.178,2.744,4.527,4.527,0,0,0,1.658,2.039,5.8,5.8,0,0,0,2.541.99c0.041,0.006.081,0.009,0.122,0.013a1.589,1.589,0,0,1,.286.047h0.589a0.5,0.5,0,0,1,.13-0.025,4.806,4.806,0,0,0,1.189-.265,3.42,3.42,0,0,0,2.015-1.906,5.608,5.608,0,0,0,.361-1.406c0.106-.694.171-1.409,0.228-2.081,0.07-.832.113-1.652,0.143-2.273,0.023-.5.05-1.061,0.045-1.614a0.333,0.333,0,0,1,.3-0.4,12.27,12.27,0,0,0,1.959-.7,9.238,9.238,0,0,0,2.4-1.583,8.007,8.007,0,0,0,1.963-2.771,8.482,8.482,0,0,0,.7-4.028,9.521,9.521,0,0,0-.56-2.622,7.523,7.523,0,0,0-2.416-3.328,8.7,8.7,0,0,0-2.155-1.235,9.429,9.429,0,0,0-2.19-.594,0.389,0.389,0,0,1-.424-0.472v-0.818c0-.621,0-1.241.007-1.863a5.217,5.217,0,0,1,.042-0.753,3.387,3.387,0,0,1,.722-1.575,10.208,10.208,0,0,1,1.352-1.358l0.175-.154a11.268,11.268,0,0,0,.955-0.913,10.371,10.371,0,0,0,1.761-2.814,14.643,14.643,0,0,0,.874-2.795,12.375,12.375,0,0,0,.279-2.637,10.853,10.853,0,0,0-.074-1.2,12.441,12.441,0,0,0-.695-2.883,17.177,17.177,0,0,0-1.8-3.506,4.184,4.184,0,0,0-.686-0.815,2.385,2.385,0,0,0-.81-0.517c-0.075-.025-0.153-0.049-0.229-0.072l-0.066-.02h-0.7a4.084,4.084,0,0,0-2.132,1.468,12.756,12.756,0,0,0-2.228,3.828,16.959,16.959,0,0,0-1.028,4.1c-0.053.426-.09,0.867-0.113,1.347-0.013.311-.028,0.723-0.012,1.14a13.784,13.784,0,0,0,.352,2.8c0.121,0.506.258,1.1,0.349,1.7a7.106,7.106,0,0,1,.083.859,1.224,1.224,0,0,1-.377.945,3.035,3.035,0,0,1-.59.468,26.047,26.047,0,0,0-2.228,1.525c-0.262.191-.523,0.384-0.786,0.572a13.816,13.816,0,0,0-2.144,1.9,13.311,13.311,0,0,0-1.8,2.507A12.708,12.708,0,0,0,98,319.293a12.333,12.333,0,0,0-.019,1.548,10.763,10.763,0,0,0,.8,3.6,10.9,10.9,0,0,0,2,3.166,11.265,11.265,0,0,0,1.942,1.727,8.867,8.867,0,0,0,1.956.992,19.409,19.409,0,0,0,2.85.791c0.087,0.018.175,0.041,0.261,0.065a0.8,0.8,0,0,1,.553.535,2.809,2.809,0,0,1,.148.789l0.011,0.282c0.016,0.4.033,0.807,0.02,1.215l-0.013.356a20.651,20.651,0,0,1-.142,2.106,3.673,3.673,0,0,1-.41,1.206,0.983,0.983,0,0,1-.952.524,1.531,1.531,0,0,1-1.032-.394,1.224,1.224,0,0,1-.228-1.644,3.819,3.819,0,0,0,.278-0.5A1.777,1.777,0,0,0,105.3,333.352Zm5.957-15.672a0.343,0.343,0,0,1,.309-0.437,1.258,1.258,0,0,1,.17.017,5.067,5.067,0,0,1,2.914,1.376,5.176,5.176,0,0,1,1.452,2.595,3.454,3.454,0,0,1,.065.766v0.1a6.071,6.071,0,0,1-.39,2.291,5.244,5.244,0,0,1-2.094,2.531,6.5,6.5,0,0,1-1.958.85,0.8,0.8,0,0,1-.192.034,0.322,0.322,0,0,1-.277-0.407V317.68Zm-1.472-21.248a12.968,12.968,0,0,1,1.486-3.264,8.093,8.093,0,0,1,.64-0.919,2.947,2.947,0,0,1,.232-0.255,0.372,0.372,0,0,1,.258-0.128,0.4,0.4,0,0,1,.236.094,1.834,1.834,0,0,1,.417.429,4.234,4.234,0,0,1,.455.849,14.5,14.5,0,0,1,.866,3.094,11.681,11.681,0,0,1,.171,1.993,9.288,9.288,0,0,1-.629,3.482,7.272,7.272,0,0,1-3.042,3.587,0.544,0.544,0,0,1-.28.113,0.363,0.363,0,0,1-.314-0.32,15.476,15.476,0,0,1-.853-3.195c-0.058-.385-0.1-0.773-0.125-1.154-0.02-.291-0.028-0.608-0.025-1A12.951,12.951,0,0,1,109.789,296.432Zm-1.421,31.08a0.579,0.579,0,0,1-.034.256,0.289,0.289,0,0,1-.29.164c-0.03,0-.066,0-0.112,0a6.612,6.612,0,0,1-2.328-.605,6.857,6.857,0,0,1-2.139-1.519,7.582,7.582,0,0,1-1.187-1.661,10.3,10.3,0,0,1-1.017-3.077,7.407,7.407,0,0,1-.048-2,9.582,9.582,0,0,1,.507-2.3,9.4,9.4,0,0,1,1.737-3,11.028,11.028,0,0,1,3.135-2.5c0.351-.193.736-0.382,1.176-0.576,0.052-.023.1-0.045,0.156-0.065l0.112-.022a0.264,0.264,0,0,1,.262.278l0.013,0.714c0.008,0.486.017,0.972,0.034,1.458,0.008,0.26.016,0.518,0.02,0.777a0.378,0.378,0,0,1-.3.452,8.224,8.224,0,0,0-2.154,1.232,5.056,5.056,0,0,0-1.51,1.856,3.965,3.965,0,0,0-.351,1.975,5.563,5.563,0,0,0,.333,1.465,5.62,5.62,0,0,1,1.375-2.42,3.872,3.872,0,0,1,2.2-1.1,0.59,0.59,0,0,1,.1-0.01,0.308,0.308,0,0,1,.311.357v9.866Z" transform="translate(-98 -289)"/>
</svg>
