<svg xmlns="http://www.w3.org/2000/svg" width="41.031" height="40.968" viewBox="0 0 41.031 40.968">
  <defs>
    <style>
      .cls-1 {
        fill-rule: evenodd;
      }
    </style>
  </defs>
  <path id="_7" data-name="7" class="cls-1" d="M78.053,677.981c-0.026.1-.052,0.193-0.079,0.288v2.478a1.957,1.957,0,0,1,.065.188,6.062,6.062,0,0,0,3.3,4.118,7.13,7.13,0,0,0,3.556.863c0.579-.02,1.16.04,1.738-0.031a10.82,10.82,0,0,0,2.467-.656,9.13,9.13,0,0,0,3.083-1.842A7.627,7.627,0,0,0,94,680.939a6.5,6.5,0,0,0,.616-2.681q0-8.652,0-17.3v-2.877c0-.337,0-0.337.33-0.342a1.605,1.605,0,0,0,.219-0.016q2.067-.363,4.132-0.73,3.207-.567,6.416-1.133,3.817-.675,7.637-1.347c0.95-.167,1.9-0.333,2.853-0.507,0.144-.026.2,0.007,0.192,0.154,0,0.04,0,.081,0,0.12v10.648q0,2.107,0,4.215a0.216,0.216,0,0,1-.029.2,0.222,0.222,0,0,1-.206-0.086c-0.223-.132-0.441-0.276-0.67-0.4a8.489,8.489,0,0,0-5.44-.8,10.2,10.2,0,0,0-5.078,2.234,7.557,7.557,0,0,0-2.09,2.662,6.282,6.282,0,0,0-.354,4.438,5.794,5.794,0,0,0,1.518,2.591,7.065,7.065,0,0,0,2.445,1.552,9.191,9.191,0,0,0,4.777.46,11.351,11.351,0,0,0,3.575-1.227,8.563,8.563,0,0,0,2.64-2.188,7.22,7.22,0,0,0,1.08-1.835,5.612,5.612,0,0,0,.425-2.138q-0.012-13.715,0-27.428a2.131,2.131,0,0,0-.625-1.507,3.348,3.348,0,0,0-1.109-.73h-2.04c-0.563.1-1.125,0.212-1.689,0.313q-3.216.568-6.435,1.134-3.6.636-7.2,1.269c-1.89.333-3.78,0.659-5.666,1a2.719,2.719,0,0,0-2.228,2.293,3.6,3.6,0,0,0-.016.5v12.783q0,4.335,0,8.67a0.281,0.281,0,0,1-.043.278,0.289,0.289,0,0,1-.238-0.117,8.1,8.1,0,0,0-3.891-1.252,10.514,10.514,0,0,0-8.138,3.19A7.106,7.106,0,0,0,78.053,677.981Zm38.047-2.332a6.23,6.23,0,0,1-3.332,3.171,8.719,8.719,0,0,1-1.841.589,6.8,6.8,0,0,1-1.182.1,5.738,5.738,0,0,1-3.371-.985,3.355,3.355,0,0,1-.971-4.7,6.423,6.423,0,0,1,2.924-2.535,7.874,7.874,0,0,1,2.069-.66,6.211,6.211,0,0,1,3.429.37,4.773,4.773,0,0,1,1.629,1.087A3.317,3.317,0,0,1,116.1,675.649ZM94.771,651.27q4.971-.87,9.94-1.75,5.37-.948,10.744-1.891c0.23-.039.461-0.075,0.688-0.124,0.138-.03.176,0.014,0.175,0.148,0,0.573,0,1.146,0,1.718s0,1.119,0,1.679a0.209,0.209,0,0,1-.211.245q-5.746,1.008-11.493,2.025l-9.722,1.714c-0.356.062-.356,0.062-0.356-0.3,0-1.057.005-2.116,0-3.175A0.239,0.239,0,0,1,94.771,651.27Zm-14.157,27.4a4.844,4.844,0,0,1,1.212-2.036,7.615,7.615,0,0,1,4.353-2.173A4.919,4.919,0,0,1,87.2,674.4a5.534,5.534,0,0,1,3.124.9A3.429,3.429,0,0,1,91.7,679.53a5.533,5.533,0,0,1-1.722,2.212,7.761,7.761,0,0,1-3.794,1.57,5.831,5.831,0,0,1-4.165-.9A3.328,3.328,0,0,1,80.613,678.669Z" transform="translate(-77.969 -644.938)"/>
</svg>
