<svg xmlns="http://www.w3.org/2000/svg" width="41.688" height="39.563" viewBox="0 0 41.688 39.563">
  <defs>
    <style>
      .cls-1 {
        fill-rule: evenodd;
      }
    </style>
  </defs>
  <path id="_8" data-name="8" class="cls-1" d="M116.219,743.467l-3.552-.4q-4.077-.461-8.154-0.917a1.131,1.131,0,0,1-.959-0.636q-1.425-2.691-2.876-5.371l-1.668-3.113c-0.354-.667-0.708-1.334-1.073-2a1.444,1.444,0,0,0-1.772-.807,1.638,1.638,0,0,0-.973.962l-1.829,3.952q-1.564,3.378-3.122,6.758a1.078,1.078,0,0,1-.836.673q-3.394.576-6.785,1.161-2.58.447-5.159,0.9a1.465,1.465,0,0,0-1.036.622,1.492,1.492,0,0,0,.473,2.081q2.048,1.851,4.091,3.7,2.3,2.086,4.606,4.168a1.09,1.09,0,0,1,.381,1.04Q85.127,762.075,84.3,767.9a1.806,1.806,0,0,0,.042.9,1.476,1.476,0,0,0,2.232.682l2.4-1.335q3.975-2.209,7.945-4.43a1.32,1.32,0,0,1,.625-0.191,1.334,1.334,0,0,1,.64.156q3.749,1.827,7.507,3.635l3.087,1.49a2.369,2.369,0,0,0,.844.271h0a1.474,1.474,0,0,0,1.136-.525,1.645,1.645,0,0,0,.281-1.388q-1.175-5.763-2.365-11.527a1.108,1.108,0,0,1,.311-1.1q1.992-2.007,3.968-4.027l1.827-1.862c0.838-.853,1.675-1.7,2.505-2.563a1.467,1.467,0,0,0,.5-1.544A1.557,1.557,0,0,0,116.219,743.467Zm-3.616,3.346-1.514,1.539q-2.389,2.445-4.8,4.878a2,2,0,0,0-.621,2.027c0.479,2.211.929,4.427,1.379,6.644l0.413,2.033a1.248,1.248,0,0,1,.02.7l-0.114.364-3.242-1.562q-2.842-1.365-5.679-2.746a1.932,1.932,0,0,0-1.987.062c-2.014,1.14-4.039,2.262-6.064,3.384l-1.83,1.015a1.137,1.137,0,0,1-.6.224l-0.39.011L87.6,765l0.572-4.076c0.255-1.8.51-3.609,0.781-5.411a1.678,1.678,0,0,0-.609-1.622q-2.117-1.914-4.228-3.833l-2.447-2.22c-0.109-.1-0.157-0.142-0.2-0.188a0.539,0.539,0,0,1-.251-0.53,0.46,0.46,0,0,1,.49-0.362l2.465-.425c2.175-.379,4.349-0.757,6.527-1.121a2.083,2.083,0,0,0,1.748-1.294c0.893-2,1.816-3.98,2.739-5.962l0.98-2.107a1.217,1.217,0,0,1,.386-0.569l0.313-.244,1.988,3.72c0.881,1.634,1.762,3.267,2.625,4.909a2.047,2.047,0,0,0,1.739,1.18c2.567,0.275,5.133.574,7.7,0.874l1.3,0.15,0.128-.009a0.478,0.478,0,0,1,.522.374A0.574,0.574,0,0,1,112.6,746.813Z" transform="translate(-76.156 -730.156)"/>
</svg>
