<svg xmlns="http://www.w3.org/2000/svg" width="47.969" height="43.938" viewBox="0 0 47.969 43.938">
  <defs>
    <style>
      .cls-1 {
        fill-rule: evenodd;
      }
    </style>
  </defs>
  <path id="_6" data-name="6" class="cls-1" d="M92.585,600.979c1.935,0.021,1.421-1.665,1.423-2.772q0.048-19.206.015-38.412a10.512,10.512,0,0,0-.118-1.827,1.157,1.157,0,0,0-1.367-.938,1.137,1.137,0,0,0-1.264,1.06c-0.046.5-.045,1-0.045,1.5q0,9.685,0,19.372c0,6.4-.025,12.805.026,19.207C91.262,599.248,90.611,600.959,92.585,600.979Zm3.645-5.3c0,1.029-.067,2.131,1.434,2.1,1.367-.028,1.362-1.054,1.363-2.029q0.005-16.692,0-33.385c0-1.03.021-2.134-1.461-2.1-1.515.038-1.332,1.205-1.332,2.193q-0.015,8.262,0,16.526Q96.23,587.334,96.23,595.681Zm-13.587-.863c1.267-.021,1.368-0.916,1.368-1.854q0.01-13.944,0-27.888c0-.943-0.116-1.818-1.378-1.849-1.417-.038-1.406.936-1.406,1.928q0.005,6.848,0,13.694,0,7.012,0,14.027C81.228,593.875,81.248,594.841,82.643,594.818Zm4.87-3.516c1.338,0.055,1.5-.883,1.5-1.907q0.005-10.368,0-20.735c0-1.021-.158-1.968-1.5-1.918-1.256.045-1.3,0.961-1.294,1.909q0.011,5.183,0,10.367c0,3.456.005,6.911,0,10.367C86.225,590.328,86.253,591.25,87.512,591.3Zm15.175-24.223a1.249,1.249,0,0,0-1.447,1.414q0,10.534,0,21.071a1.229,1.229,0,0,0,1.288,1.408A1.3,1.3,0,0,0,104,589.556c0.02-.39.027-0.782,0.027-1.171q0-4.683,0-9.366h-0.015c0-3.456.006-6.911,0-10.366A1.32,1.32,0,0,0,102.687,567.079Zm-26.458,5.608c0.007,2.056,0,4.111,0,6.167,0,2.221.007,4.443,0,6.665,0,0.882.246,1.54,1.269,1.585a1.334,1.334,0,0,0,1.484-1.576q0.024-6.5,0-13a1.333,1.333,0,0,0-1.477-1.583C76.361,571,76.225,571.779,76.229,572.687Zm31.4-.714c-1.112,0-1.393.693-1.391,1.653q0.009,5.515,0,11.032c0,0.9.237,1.481,1.3,1.507a1.269,1.269,0,0,0,1.5-1.5c-0.015-1.784,0-3.565,0-5.349,0-1.895.005-3.788,0-5.684C109.022,572.7,108.743,571.973,107.625,571.973Zm3.6,3.021c0.01,2.554.015,5.109,0,7.664-0.008.977,0.3,1.643,1.392,1.638,1.109,0,1.377-.754,1.389-1.677,0.015-1.222,0-2.444,0-3.666H114c0-1.333.014-2.666,0-4a1.359,1.359,0,0,0-1.516-1.56C111.462,573.429,111.223,574.112,111.225,574.994ZM72.54,582.475a1.115,1.115,0,0,0,1.214-1.252c0.007-.721,0-1.44,0-2.162H73.75c0-.777.015-1.553,0-2.328a1.107,1.107,0,0,0-1.3-1.157,1.147,1.147,0,0,0-1.388,1.088c-0.062,1.548-.064,3.1-0.012,4.652A1.2,1.2,0,0,0,72.54,582.475Zm46.43-3.441h-0.017c0-.776.048-1.555-0.013-2.325a1.215,1.215,0,0,0-1.521-1.129,1.11,1.11,0,0,0-1.186,1.275c0,1.44,0,2.883,0,4.323a1.155,1.155,0,0,0,1.337,1.3,1.221,1.221,0,0,0,1.394-1.285C119,580.476,118.97,579.754,118.97,579.034Z" transform="translate(-71.031 -557.031)"/>
</svg>
